<svg xmlns="http://www.w3.org/2000/svg" viewBox="43 38 125 125">
  <path d="M73.229,86.328l-23.534,23.534c-1.805,1.805-1.805,4.731,0,6.535l23.534,23.534,26.801-26.801-26.801-26.801ZM53.309,115.659c-1.396-1.396-1.396-3.66,0-5.057,1.396-1.396,3.66-1.396,5.057,0,1.396,1.396,1.396,3.66,0,5.057-1.396,1.396-3.66,1.396-5.057,0Z" fill="#234374"/>
  <path d="M134.616,139.931l23.534-23.534c1.805-1.805,1.805-4.73,0-6.535l-23.534-23.534-26.801,26.801,26.802,26.802ZM154.336,110.474c1.396,1.396,1.396,3.66,0,5.057-1.396,1.396-3.66,1.396-5.057,0-1.396-1.396-1.396-3.66,0-5.057,1.396-1.396,3.66-1.396,5.057,0Z" fill="#234374"/>
  <path d="M130.724,82.436l-23.534-23.534c-1.805-1.805-4.73-1.805-6.535,0l-23.534,23.534,26.801,26.801,26.801-26.801ZM101.358,67.61c-1.396-1.396-1.396-3.66,0-5.057,1.396-1.396,3.66-1.396,5.057,0,1.396,1.396,1.396,3.66,0,5.057-1.396,1.396-3.66,1.396-5.057,0Z" fill="#234374"/>
</svg>
