<?xml version="1.0" encoding="UTF-8"?>
<svg id="Layer_1" xmlns="http://www.w3.org/2000/svg" version="1.1" viewBox="0 0 841.89 225.779">
  <!-- Generator: Adobe Illustrator 30.3.0, SVG Export Plug-In . SVG Version: 2.1.3 Build 182)  -->
  <g>
    <path d="M212.503,68.374c15.505,0,22.371,11.138,22.371,22.362s-6.866,22.162-22.371,22.162h-14.113v23.954h-13.808v-68.478h27.921ZM211.817,100.777c6.656,0,9.135-5.168,9.135-10.041,0-4.968-2.479-10.137-8.945-10.137h-13.617v20.178h13.427Z" fill="#234374"/>
    <path d="M241.874,136.852v-71.653h13.007v71.653h-13.007Z" fill="#234374"/>
    <path d="M300.921,90.44h13.007v46.411h-13.007v-6.656c-3.09,4.768-9.04,7.848-15.315,7.848-12.816,0-22.352-9.936-22.352-24.345s9.345-24.45,22.657-24.45c5.97,0,11.92,2.584,15.01,7.352v-6.16ZM300.52,113.699c0-7.057-5.664-12.33-12.13-12.33-6.751,0-11.825,5.569-11.825,12.33,0,6.456,5.073,12.225,11.92,12.225,6.561,0,12.034-5.569,12.034-12.225Z" fill="#234374"/>
    <path d="M322.224,122.243h12.225c0,2.68,2.289,5.569,6.866,5.569,3.776,0,6.656-1.888,6.656-4.577,0-1.983-1.602-2.975-5.073-3.872l-6.16-1.497c-11.92-3.175-13.522-9.832-13.522-14.704,0-7.152,7.457-13.913,18.195-13.913,8.449,0,18.385,4.072,18.29,15.105h-12.435c0-3.175-2.575-4.873-5.664-4.873-2.975,0-5.359,1.697-5.359,4.081,0,2.184,1.983,3.28,4.577,3.976l7.648,1.983c11.119,2.985,12.511,9.936,12.511,13.713,0,9.746-9.936,14.809-19.472,14.809-9.746,0-19.186-5.569-19.282-15.801Z" fill="#234374"/>
    <path d="M396.299,90.44v10.137h-9.841v36.275h-13.026v-36.275h-8.449v-10.137h8.449v-16.898h13.026v16.898h9.841Z" fill="#234374"/>
    <path d="M402.974,73.343c0-2.079,1.678-3.576,3.776-3.576,2.174,0,3.872,1.497,3.872,3.576,0,1.993-1.697,3.481-3.872,3.481-2.098,0-3.776-1.488-3.776-3.481ZM404.557,136.852v-46.411h4.367v46.411h-4.367Z" fill="#234374"/>
    <path d="M463.699,109.617v27.235h-4.367v-27.034c0-9.936-6.351-16.202-14.8-16.202-8.163,0-16.211,4.778-16.497,17.098v26.138h-4.387v-46.411h4.387v9.536c2.67-7.648,10.223-10.728,16.783-10.728,10.947,0,18.881,7.753,18.881,20.369Z" fill="#234374"/>
    <path d="M518.493,65.199h4.387v71.653h-4.387v-10.337c-3.776,6.856-11.519,11.529-20.064,11.529-13.217,0-23.954-10.728-23.954-24.45s10.737-24.345,23.954-24.345c8.64,0,16.192,4.673,20.064,11.624v-35.674ZM518.493,113.994c0-12.12-9.231-20.474-19.873-20.474-10.833,0-19.778,8.945-19.778,20.073s8.945,20.178,19.778,20.178,19.873-8.353,19.873-19.778Z" fill="#234374"/>
    <path d="M572.695,90.44h4.387v46.411h-4.387v-9.24c-2.784,7.448-10.337,10.432-16.688,10.432-10.928,0-18.996-7.753-18.996-20.369v-27.235h4.387v27.13c0,9.936,6.446,16.202,14.895,16.202,8.163,0,16.116-4.768,16.402-17.098v-26.233Z" fill="#234374"/>
    <path d="M587.953,125.523h4.158c1.202,3.976,4.673,8.449,12.435,8.449,7.343,0,11.92-3.976,11.92-9.441,0-3.976-2.479-7.161-8.239-8.649l-6.866-1.593c-5.664-1.287-11.519-4.272-11.519-12.32,0-7.352,6.351-12.721,14.8-12.721,7.743,0,14.113,4.367,14.609,11.825h-4.272c-.591-4.673-4.863-7.753-10.242-7.753-6.16,0-10.528,3.681-10.528,8.554,0,5.559,4.577,7.648,8.239,8.439l6.866,1.593c8.64,2.088,11.519,7.352,11.519,12.721,0,7.953-6.656,13.417-16.287,13.417-7.762,0-15.315-4.272-16.593-12.521Z" fill="#234374"/>
    <path d="M650.28,90.44v3.872h-11.233v42.54h-4.367v-42.54h-8.449v-3.872h8.449v-17.289h4.367v17.289h11.233Z" fill="#234374"/>
    <path d="M685.372,90.345l-1.087,4.167c-2.193-.791-4.272-.992-5.855-.992-12.53,0-15.505,14.609-15.715,25.347v17.985h-4.367v-46.411h4.367v12.721c1.983-7.848,7.457-13.913,15.811-13.913,2.079,0,4.558.296,6.847,1.097Z" fill="#234374"/>
    <path d="M690.979,73.343c0-2.079,1.678-3.576,3.776-3.576,2.174,0,3.872,1.497,3.872,3.576,0,1.993-1.697,3.481-3.872,3.481-2.098,0-3.776-1.488-3.776-3.481ZM692.562,136.852v-46.411h4.367v46.411h-4.367Z" fill="#234374"/>
    <path d="M752.295,90.44h4.387v46.411h-4.387v-10.833c-3.776,7.152-11.329,12.025-20.178,12.025-13.007,0-23.84-10.833-23.84-24.45,0-13.417,10.623-24.345,23.954-24.345,8.64,0,16.287,4.768,20.064,11.729v-10.537ZM752.295,113.994c0-11.929-9.231-20.474-19.968-20.474-10.833,0-19.682,9.145-19.682,20.073,0,11.033,8.849,20.178,19.778,20.178,10.737,0,19.873-8.449,19.873-19.778Z" fill="#234374"/>
    <path d="M771.405,136.852v-71.653h4.387v71.653h-4.387Z" fill="#234374"/>
  </g>
  <g>
    <path d="M73.229,86.328l-23.534,23.534c-1.805,1.805-1.805,4.731,0,6.535l23.534,23.534,26.801-26.801-26.801-26.801ZM53.309,115.659c-1.396-1.396-1.396-3.66,0-5.057,1.396-1.396,3.66-1.396,5.057,0,1.396,1.396,1.396,3.66,0,5.057-1.396,1.396-3.66,1.396-5.057,0Z" fill="#234374"/>
    <path d="M134.616,139.931l23.534-23.534c1.805-1.805,1.805-4.73,0-6.535l-23.534-23.534-26.801,26.801,26.802,26.802ZM154.336,110.474c1.396,1.396,1.396,3.66,0,5.057-1.396,1.396-3.66,1.396-5.057,0-1.396-1.396-1.396-3.66,0-5.057,1.396-1.396,3.66-1.396,5.057,0Z" fill="#234374"/>
    <path d="M130.724,82.436l-23.534-23.534c-1.805-1.805-4.73-1.805-6.535,0l-23.534,23.534,26.801,26.801,26.801-26.801ZM101.358,67.61c-1.396-1.396-1.396-3.66,0-5.057,1.396-1.396,3.66-1.396,5.057,0,1.396,1.396,1.396,3.66,0,5.057-1.396,1.396-3.66,1.396-5.057,0Z" fill="#234374"/>
  </g>
  <g>
    <path d="M186.766,168.883c0-7.657,5.893-13.98,13.512-13.98,3.118,0,5.97,1.058,8.191,2.813l-1.125,1.287c-1.917-1.478-4.377-2.422-7.066-2.422-6.637,0-11.758,5.626-11.758,12.301s5.121,12.177,11.758,12.177c5.97,0,10.184-3.595,10.614-9.841h-8.353v-1.631h10.232c-.162,8.859-5.426,13.15-12.492,13.15-7.619,0-13.512-6.208-13.512-13.856Z" fill="#234374"/>
    <path d="M228.753,171.42l7.657,10.852h-2.155l-7.648-10.852h-5.388v10.852h-1.755v-26.901h9.917c5.426,0,7.495,3.986,7.495,8.048,0,4.015-2.107,8.001-7.495,8.001h-.629ZM221.219,157.049v12.692h7.81c4.406,0,6.093-3.004,6.093-6.322s-1.726-6.37-5.702-6.37h-8.201Z" fill="#234374"/>
    <path d="M242.303,168.883c0-7.657,5.931-13.98,13.512-13.98,7.648,0,13.579,6.322,13.579,13.98,0,7.61-5.931,13.856-13.579,13.856-7.581,0-13.512-6.246-13.512-13.856ZM267.64,168.883c0-6.675-5.188-12.301-11.825-12.301-6.599,0-11.758,5.626-11.758,12.301,0,6.637,5.159,12.177,11.758,12.177,6.637,0,11.825-5.54,11.825-12.177Z" fill="#234374"/>
    <path d="M276.366,173.413v-18.042h1.755v18.042c0,4.72,3.481,7.61,7.657,7.61s7.648-2.889,7.648-7.61v-18.042h1.755v18.042c0,5.693-4.291,9.326-9.402,9.326s-9.412-3.633-9.412-9.326Z" fill="#234374"/>
    <path d="M314.643,155.371c5.35,0,7.419,3.986,7.419,8.048s-2.069,8.001-7.572,8.001h-8.592v10.852h-1.755v-26.901h10.499ZM314.414,169.741c4.291,0,5.893-3.128,5.893-6.322s-1.564-6.37-5.702-6.37h-8.706v12.692h8.516Z" fill="#234374"/>
  </g>
</svg>